<?xml version="1.0" encoding="utf-8"?>
<!-- Generator: Adobe Illustrator 25.2.3, SVG Export Plug-In . SVG Version: 6.00 Build 0)  -->
<svg version="1.1" id="Ebene_3" xmlns="http://www.w3.org/2000/svg" xmlns:xlink="http://www.w3.org/1999/xlink" x="0px" y="0px"
	 viewBox="0 0 1630.9 280.3" style="enable-background:new 0 0 1630.9 280.3;" xml:space="preserve">
<style type="text/css">
	.st0{fill:#26201F;}
	.st1{fill:#00D198;}
	.st2{fill:#25B9FF;}
	.st3{fill:#FD084D;}
	.st4{fill:#FF8144;}
	.st5{fill:#FFFFFF;stroke:#26201F;stroke-width:15;stroke-miterlimit:10;}
</style>
<g>
	<g>
		<path class="st0" d="M200,65.3c8.3,0,15,6.7,15,15v170c0,8.3-6.7,15-15,15H30c-8.3,0-15-6.7-15-15v-170c0-8.3,6.7-15,15-15H200
			 M200,50.3H30c-16.5,0-30,13.5-30,30v170c0,16.5,13.5,30,30,30h170c16.5,0,30-13.5,30-30v-170C230,63.8,216.5,50.3,200,50.3
			L200,50.3z"/>
	</g>
	<path class="st1" d="M100,160.3H35c-5.5,0-10-4.5-10-10v-65c0-5.5,4.5-10,10-10h65c5.5,0,10,4.5,10,10v65
		C110,155.9,105.5,160.3,100,160.3z"/>
	<path class="st2" d="M195,160.3h-65c-5.5,0-10-4.5-10-10v-65c0-5.5,4.5-10,10-10h65c5.5,0,10,4.5,10,10v65
		C205,155.9,200.5,160.3,195,160.3z"/>
	<path class="st3" d="M195,255.3h-65c-5.5,0-10-4.5-10-10v-65c0-5.5,4.5-10,10-10h65c5.5,0,10,4.5,10,10v65
		C205,250.9,200.5,255.3,195,255.3z"/>
	<path class="st4" d="M100,255.3H35c-5.5,0-10-4.5-10-10v-65c0-5.5,4.5-10,10-10h65c5.5,0,10,4.5,10,10v65
		C110,250.9,105.5,255.3,100,255.3z"/>
</g>
<g>
	<ellipse class="st5" cx="145" cy="57.3" rx="27.7" ry="49.8"/>
	<ellipse class="st0" cx="155.9" cy="64.3" rx="14.2" ry="19"/>
</g>
<g>
	<ellipse class="st5" cx="85" cy="57.3" rx="27.7" ry="49.8"/>
	<ellipse class="st0" cx="95.9" cy="64.3" rx="14.2" ry="19"/>
</g>
<g>
	<path class="st0" d="M298.5,103.3H321l37,64.1h1.4l37-64.1H419v121h-22.6v-59.7l1.4-20.3h-1.4l-30.8,54.3h-13.7L321,144.4h-1.4
		l1.4,20.3v59.7h-22.5V103.3z"/>
	<path class="st0" d="M465,220.2l-34.8-78.8h25.2l21,50.2h1.2l20.1-50.2h24.7l-51.9,119.3h-23.8L465,220.2z"/>
	<path class="st0" d="M592.6,157.9h59.3c0.3,1.4,0.6,3,0.8,4.9c0.2,1.9,0.3,3.8,0.3,5.7c0,7.8-1.2,15.1-3.5,22
		c-2.4,6.9-6.1,13-11.2,18.4c-5.4,5.7-11.9,10.2-19.4,13.4c-7.5,3.2-16.2,4.7-25.9,4.7c-8.8,0-17.1-1.6-24.8-4.7
		c-7.8-3.2-14.5-7.5-20.3-13.2c-5.7-5.6-10.3-12.3-13.7-20c-3.4-7.7-5.1-16.1-5.1-25.3c0-9.1,1.7-17.5,5.1-25.3
		c3.4-7.7,7.9-14.4,13.7-20c5.7-5.6,12.5-10,20.3-13.2c7.8-3.2,16.1-4.7,24.8-4.7c9.8,0,18.6,1.7,26.3,5.1c7.7,3.4,14.3,8.1,19.9,14
		l-15.7,15.4c-3.9-4.2-8.3-7.4-13.2-9.5c-4.8-2.2-10.6-3.3-17.4-3.3c-5.5,0-10.8,1-15.7,3c-5,2-9.3,4.8-13,8.4
		c-3.7,3.6-6.7,8-8.9,13.1c-2.2,5.1-3.3,10.8-3.3,17.2c0,6.3,1.1,12,3.3,17.2c2.2,5.1,5.2,9.5,9,13.1c3.8,3.6,8.1,6.4,13.1,8.4
		c5,2,10.3,3,15.9,3c6.4,0,11.9-0.9,16.3-2.8c4.4-1.9,8.3-4.3,11.4-7.2c2.3-2,4.2-4.6,5.8-7.7c1.6-3.1,2.9-6.6,3.8-10.4h-38V157.9z"
		/>
	<path class="st0" d="M717.8,215.5h-1.4c-2.6,3.2-5.7,5.9-9.4,8.1c-3.7,2.3-8.4,3.4-14.1,3.4c-4.3,0-8.3-0.7-12.1-2.1
		c-3.8-1.4-7.1-3.4-9.9-5.8c-2.8-2.5-5-5.5-6.6-9c-1.6-3.5-2.4-7.3-2.4-11.5c0-4.3,0.8-8.1,2.5-11.6c1.7-3.4,4.1-6.4,7.1-8.9
		c3-2.5,6.6-4.4,10.7-5.7c4.1-1.3,8.6-1.9,13.4-1.9c5.4,0,9.9,0.4,13.4,1.3c3.5,0.8,6.4,1.7,8.6,2.6v-2.5c0-4.4-1.7-8-5.2-10.9
		c-3.5-2.9-7.8-4.3-13-4.3c-7.7,0-14.1,3.2-19.4,9.6l-16.1-11c8.8-11,20.8-16.6,36-16.6c12.8,0,22.6,3,29.4,9
		c6.8,6,10.1,15,10.1,26.8v49.7h-21.8V215.5z M717.8,190.7c-2.6-1.2-5.3-2.2-8-3c-2.8-0.7-5.8-1.1-9-1.1c-5.3,0-9.4,1.2-12.3,3.5
		c-2.9,2.3-4.3,5.2-4.3,8.5c0,3.4,1.4,6.1,4.1,8.1c2.8,2,5.9,3,9.5,3c2.9,0,5.6-0.5,8.1-1.6c2.5-1.1,4.6-2.5,6.3-4.2
		c1.7-1.7,3.1-3.8,4.1-6.1C717.3,195.5,717.8,193.1,717.8,190.7z"/>
	<path class="st0" d="M757.2,141.5H778V153h1.4c1-2,2.4-3.9,4.1-5.6c1.7-1.7,3.6-3.2,5.7-4.4c2.1-1.3,4.3-2.3,6.8-3
		c2.4-0.8,4.8-1.2,7.2-1.2c2.9,0,5.4,0.3,7.5,0.9c2.1,0.6,3.9,1.4,5.3,2.4l-5.9,19.8c-1.4-0.7-2.8-1.2-4.5-1.6
		c-1.6-0.4-3.6-0.6-6-0.6c-3,0-5.8,0.6-8.3,1.8c-2.5,1.2-4.6,2.9-6.3,5c-1.7,2.2-3.1,4.7-4.1,7.6c-1,2.9-1.4,6-1.4,9.4v40.8h-22.1
		V141.5z"/>
	<path class="st0" d="M873.6,215.5h-1.4c-2.6,3.2-5.7,5.9-9.4,8.1c-3.7,2.3-8.4,3.4-14.1,3.4c-4.3,0-8.3-0.7-12.1-2.1
		c-3.8-1.4-7.1-3.4-9.9-5.8c-2.8-2.5-5-5.5-6.6-9c-1.6-3.5-2.4-7.3-2.4-11.5c0-4.3,0.8-8.1,2.5-11.6c1.7-3.4,4.1-6.4,7.1-8.9
		c3-2.5,6.6-4.4,10.7-5.7c4.1-1.3,8.6-1.9,13.4-1.9c5.4,0,9.9,0.4,13.4,1.3c3.5,0.8,6.4,1.7,8.6,2.6v-2.5c0-4.4-1.7-8-5.2-10.9
		c-3.5-2.9-7.8-4.3-13-4.3c-7.7,0-14.1,3.2-19.4,9.6l-16.1-11c8.8-11,20.8-16.6,36-16.6c12.8,0,22.6,3,29.4,9
		c6.8,6,10.1,15,10.1,26.8v49.7h-21.8V215.5z M873.6,190.7c-2.6-1.2-5.3-2.2-8-3c-2.8-0.7-5.8-1.1-9-1.1c-5.3,0-9.4,1.2-12.3,3.5
		c-2.9,2.3-4.3,5.2-4.3,8.5c0,3.4,1.4,6.1,4.1,8.1c2.8,2,5.9,3,9.5,3c2.9,0,5.6-0.5,8.1-1.6c2.5-1.1,4.6-2.5,6.3-4.2
		c1.7-1.7,3.1-3.8,4.1-6.1C873.1,195.5,873.6,193.1,873.6,190.7z"/>
	<path class="st0" d="M950.3,263.5c-5.9,0-11.1-0.8-15.6-2.3c-4.6-1.5-8.5-3.5-11.9-5.9c-3.4-2.4-6.2-5.1-8.5-8
		c-2.3-2.9-3.9-5.9-4.9-8.8l21.1-8.5c1.6,4.4,4.2,7.8,7.8,10.2c3.6,2.4,7.6,3.6,12,3.6c7,0,12.5-2.3,16.6-6.8
		c4.1-4.5,6.1-10.8,6.1-18.7v-5.7h-1.4c-2.6,3.6-6,6.5-10.2,8.5c-4.2,2.1-9.2,3.1-15,3.1c-5,0-9.8-1-14.5-3c-4.7-2-8.8-4.9-12.4-8.6
		c-3.6-3.7-6.5-8.2-8.8-13.5c-2.3-5.2-3.4-11.1-3.4-17.6s1.1-12.4,3.4-17.7c2.3-5.3,5.2-9.8,8.8-13.6c3.6-3.7,7.7-6.6,12.4-8.6
		c4.7-2,9.5-3,14.5-3c5.7,0,10.7,1,15,3.1c4.2,2.1,7.6,4.9,10.2,8.5h1.4v-9h21.1v76.9c0,7-1.1,13.3-3.2,18.8
		c-2.1,5.6-5.1,10.3-9,14.2c-3.8,3.9-8.4,6.9-13.8,9C962.8,262.5,956.9,263.5,950.3,263.5z M951.2,204.4c2.7,0,5.4-0.5,8-1.5
		c2.6-1,5-2.5,7-4.4c2-1.9,3.7-4.3,4.9-7.1c1.2-2.8,1.9-6.1,1.9-9.7c0-3.6-0.6-6.9-1.9-9.8c-1.2-2.9-2.9-5.3-4.9-7.2
		c-2-1.9-4.4-3.4-7-4.4c-2.6-1-5.3-1.5-8-1.5s-5.4,0.5-7.9,1.5c-2.6,1-4.9,2.5-6.9,4.5s-3.7,4.4-4.9,7.2c-1.2,2.8-1.9,6.1-1.9,9.7
		c0,3.7,0.6,6.9,1.9,9.7c1.2,2.8,2.9,5.2,4.9,7.1c2,1.9,4.3,3.4,6.9,4.4C945.8,203.9,948.5,204.4,951.2,204.4z"/>
	<path class="st0" d="M1090.6,204.4c-3.8,6.8-9,12.2-15.5,16.4c-6.5,4.2-14.4,6.3-23.7,6.3c-6.3,0-12.1-1.1-17.5-3.3
		c-5.4-2.2-10-5.3-13.9-9.2c-3.9-3.9-7-8.6-9.2-13.9c-2.2-5.4-3.3-11.2-3.3-17.7c0-6,1.1-11.6,3.2-17c2.1-5.4,5.1-10,9-14
		c3.8-4,8.4-7.2,13.6-9.5c5.2-2.4,11-3.5,17.3-3.5c6.6,0,12.6,1.1,17.7,3.3c5.2,2.2,9.5,5.2,13,9.1c3.5,3.9,6.1,8.5,7.9,13.8
		c1.8,5.3,2.7,11,2.7,17.2c0,0.8,0,1.5,0,2c-0.1,0.7-0.2,1.3-0.2,1.9c-0.1,0.6-0.2,1.2-0.2,1.9h-62.4c0.4,3.4,1.4,6.3,2.8,8.7
		c1.4,2.4,3.2,4.5,5.2,6.1c2.1,1.6,4.4,2.8,6.8,3.5c2.5,0.7,5,1.1,7.6,1.1c5.1,0,9.3-1.2,12.6-3.5c3.3-2.3,5.9-5.2,7.9-8.7
		L1090.6,204.4z M1070.5,172.2c-0.1-1.5-0.6-3.1-1.4-4.9c-0.8-1.8-2.1-3.5-3.7-5.1c-1.6-1.6-3.7-2.9-6.1-3.9c-2.4-1-5.3-1.5-8.7-1.5
		c-4.7,0-8.9,1.4-12.5,4.1c-3.6,2.7-6.1,6.5-7.6,11.3H1070.5z"/>
	<path class="st0" d="M1127.8,213.8c0,3.2-1.1,5.9-3.3,8.1c-2.2,2.3-4.9,3.4-8.2,3.4c-3.2,0-5.9-1.1-8.1-3.4c-2.3-2.3-3.4-5-3.4-8.1
		c0-3.3,1.1-6,3.4-8.2c2.3-2.2,5-3.3,8.1-3.3c3.3,0,6,1.1,8.2,3.3C1126.7,207.8,1127.8,210.6,1127.8,213.8z"/>
	<path class="st0" d="M1182,263.5c-4.6,0-9-0.6-13-1.8c-4.1-1.2-7.7-2.8-11.1-5c-3.3-2.1-6.2-4.7-8.5-7.6c-2.4-2.9-4.2-6.2-5.4-9.8
		l14.7-6.1c1.7,4.8,4.6,8.7,8.8,11.7c4.2,2.9,9,4.4,14.5,4.4c8.5,0,15-2.5,19.8-7.6c4.7-5.1,7.1-12.1,7.1-21v-7.9h-0.7
		c-2.9,4.4-6.9,7.9-11.9,10.4c-5,2.5-10.5,3.8-16.3,3.8c-10.8,0-20.1-4.2-27.9-12.7c-7.7-8.7-11.5-19.2-11.5-31.4
		c0-12.3,3.8-22.7,11.5-31.3c7.8-8.6,17.1-12.8,27.9-12.8c5.9,0,11.3,1.3,16.3,3.8c5,2.5,9,6,11.9,10.4h0.7v-11.5h14.9v79.3
		c0,13.3-3.8,23.7-11.3,31.3C1204.8,259.7,1194.7,263.5,1182,263.5z M1182.5,212.8c7.7,0,13.9-2.8,18.8-8.3
		c5.1-5.5,7.6-12.7,7.6-21.6c0-8.7-2.5-15.8-7.6-21.5c-5-5.6-11.2-8.5-18.8-8.5c-7.4,0-13.7,2.8-18.8,8.5
		c-5.1,5.6-7.6,12.8-7.6,21.5c0,8.8,2.5,15.9,7.6,21.5C1168.9,210,1175.1,212.8,1182.5,212.8z"/>
	<path class="st0" d="M1273.3,138.8c11.5,0,20.6,3.1,27.2,9.2c6.6,6.1,10,14.6,10,25.3v51h-14.9v-11.5h-0.7
		c-6.4,9.5-15,14.2-25.7,14.2c-9.1,0-16.8-2.7-22.9-8.1c-6.1-5.4-9.2-12.2-9.2-20.3c0-8.6,3.2-15.4,9.7-20.4
		c6.5-5.1,15.1-7.6,25.9-7.6c9.2,0,16.8,1.7,22.8,5.1v-3.5c0-5.4-2.1-10-6.4-13.8c-4.3-3.8-9.3-5.7-15-5.7c-8.7,0-15.5,3.7-20.6,11
		l-13.7-8.6C1247.4,144.2,1258.5,138.8,1273.3,138.8z M1253.2,198.9c0,4.1,1.7,7.4,5.2,10.1c3.4,2.7,7.5,4.1,12.1,4.1
		c6.5,0,12.4-2.4,17.5-7.3c5.1-4.8,7.7-10.5,7.7-17.1c-4.8-3.8-11.6-5.7-20.3-5.7c-6.3,0-11.6,1.5-15.8,4.6
		C1255.3,190.7,1253.2,194.4,1253.2,198.9z"/>
	<path class="st0" d="M1343.6,224.3h-15.5v-82.8h14.9V153h0.7c2.4-4.1,6-7.4,10.9-10.1c4.9-2.7,9.8-4.1,14.6-4.1
		c6.1,0,11.4,1.4,16.1,4.2c4.6,2.8,8,6.7,10.1,11.7c6.9-10.6,16.4-15.9,28.6-15.9c9.6,0,17,2.9,22.1,8.8c5.2,5.9,7.8,14.2,7.8,25
		v51.7h-15.5V175c0-7.8-1.4-13.4-4.2-16.8c-2.8-3.4-7.5-5.2-14.2-5.2c-6,0-11,2.5-15,7.6c-4.1,5.1-6.1,11-6.1,17.9v45.8h-15.5V175
		c0-7.8-1.4-13.4-4.2-16.8c-2.8-3.4-7.5-5.2-14.2-5.2c-6,0-11,2.5-15,7.6c-4.1,5.1-6.1,11-6.1,17.9V224.3z"/>
	<path class="st0" d="M1509.2,227c-12.2,0-22.2-4.2-30.1-12.5c-7.9-8.3-11.8-18.9-11.8-31.6c0-12.6,3.8-23.1,11.5-31.5
		c7.7-8.4,17.5-12.6,29.4-12.6c12.3,0,22.1,4,29.3,11.9c7.3,7.9,10.9,19.1,10.9,33.4l-0.2,1.7h-65.1c0.2,8.1,2.9,14.6,8.1,19.6
		c5.2,5,11.4,7.4,18.6,7.4c9.9,0,17.7-5,23.3-14.9l13.9,6.8c-3.7,7-8.9,12.5-15.5,16.4C1525,225,1517.6,227,1509.2,227z
		 M1484.4,172.9h47.5c-0.5-5.7-2.8-10.5-7-14.3c-4.2-3.8-9.9-5.7-17-5.7c-5.9,0-10.9,1.8-15.1,5.4
		C1488.5,162,1485.7,166.8,1484.4,172.9z"/>
	<path class="st0" d="M1626.9,201.3c0,7.2-3.2,13.3-9.5,18.3c-6.3,5-14.3,7.4-23.8,7.4c-8.3,0-15.7-2.2-22-6.5
		c-6.3-4.3-10.8-10.1-13.5-17.2l13.9-5.9c2,5,5,8.8,8.9,11.6c3.9,2.8,8.1,4.1,12.8,4.1c5,0,9.1-1.1,12.4-3.2c3.3-2.1,5-4.7,5-7.6
		c0-5.3-4.1-9.2-12.2-11.7l-14.2-3.5c-16.1-4.1-24.2-11.8-24.2-23.3c0-7.5,3.1-13.6,9.2-18.2c6.1-4.6,14-6.8,23.6-6.8
		c7.3,0,13.9,1.7,19.9,5.2c5.9,3.5,10.1,8.2,12.4,14l-13.9,5.7c-1.6-3.5-4.1-6.2-7.7-8.2c-3.5-2-7.5-3-11.9-3c-4.1,0-7.7,1-10.9,3
		c-3.2,2-4.8,4.5-4.8,7.4c0,4.7,4.4,8.1,13.4,10.1l12.5,3.2C1618.6,180.5,1626.9,188.8,1626.9,201.3z"/>
</g>
</svg>
